<svg xmlns="http://www.w3.org/2000/svg" viewBox="0 0 24 24" width="24" height="24">
  <path fill="#4A5568" d="M19 4h-1V3a1 1 0 0 0-2 0v1H8V3a1 1 0 0 0-2 0v1H5a3 3 0 0 0-3 3v12a3 3 0 0 0 3 3h14a3 3 0 0 0 3-3V7a3 3 0 0 0-3-3zm1 15a1 1 0 0 1-1 1H5a1 1 0 0 1-1-1v-7h16v7zm0-9H4V7a1 1 0 0 1 1-1h1v1a1 1 0 0 0 2 0V6h8v1a1 1 0 0 0 2 0V6h1a1 1 0 0 1 1 1v3z"/>
  <rect x="6" y="14" width="2" height="2" rx="0.5" fill="#4A5568"/>
  <rect x="10" y="14" width="2" height="2" rx="0.5" fill="#4A5568"/>
  <rect x="14" y="14" width="2" height="2" rx="0.5" fill="#4A5568"/>
  <rect x="6" y="17" width="2" height="2" rx="0.5" fill="#4A5568"/>
  <rect x="10" y="17" width="2" height="2" rx="0.5" fill="#4A5568"/>
  <rect x="14" y="17" width="2" height="2" rx="0.5" fill="#4A5568"/>
</svg>