<svg xmlns="http://www.w3.org/2000/svg" viewBox="0 0 512 512">
  <defs>
    <linearGradient id="ff-gradient" x1="0%" y1="0%" x2="100%" y2="100%">
      <stop offset="0%" stop-color="#FF5722" />
      <stop offset="100%" stop-color="#FF9800" />
    </linearGradient>
  </defs>
  <rect width="512" height="512" rx="64" fill="#212121" />
  <path d="M256 120c-30 0-60 10-80 30-40 40-40 100 0 140 20 20 50 30 80 30s60-10 80-30c40-40 40-100 0-140-20-20-50-30-80-30zm0 40c20 0 40 7 55 22 30 30 30 70 0 100-15 15-35 22-55 22s-40-7-55-22c-30-30-30-70 0-100 15-15 35-22 55-22z" fill="url(#ff-gradient)" />
  <path d="M256 180c-15 0-30 5-40 15-20 20-20 50 0 70 10 10 25 15 40 15s30-5 40-15c20-20 20-50 0-70-10-10-25-15-40-15zm0 30c5 0 10 2 15 7 10 10 10 25 0 35-5 5-10 7-15 7s-10-2-15-7c-10-10-10-25 0-35 5-5 10-7 15-7z" fill="#FFC107" />
  <path d="M150 330l-30 60h272l-30-60H150z" fill="url(#ff-gradient)" />
  <path d="M120 390l20 40h232l20-40H120z" fill="#FF5722" />
</svg>