<svg xmlns="http://www.w3.org/2000/svg" viewBox="0 0 512 512">
  <defs>
    <linearGradient id="hok-gradient" x1="0%" y1="0%" x2="100%" y2="100%">
      <stop offset="0%" stop-color="#9C27B0" />
      <stop offset="100%" stop-color="#673AB7" />
    </linearGradient>
  </defs>
  <rect width="512" height="512" rx="64" fill="#4A148C" />
  <path d="M256 96l-160 80v160l160 80 160-80V176l-160-80z" fill="url(#hok-gradient)" />
  <path d="M256 136l-120 60v120l120 60 120-60V196l-120-60z" fill="#4A148C" />
  <path d="M256 176l-80 40v80l80 40 80-40v-80l-80-40z" fill="#9C27B0" opacity="0.7" />
  <path d="M256 216l-40 20v40l40 20 40-20v-40l-40-20z" fill="#E1BEE7" />
  <path d="M256 236l-20 10v20l20 10 20-10v-20l-20-10z" fill="#9C27B0" />
  <path d="M216 176l-20 10v60l20 10 20-10v-60l-20-10z" fill="#E1BEE7" opacity="0.5" />
  <path d="M296 176l-20 10v60l20 10 20-10v-60l-20-10z" fill="#E1BEE7" opacity="0.5" />
  <path d="M176 216l-20 10v60l20 10 20-10v-60l-20-10z" fill="#E1BEE7" opacity="0.3" />
  <path d="M336 216l-20 10v60l20 10 20-10v-60l-20-10z" fill="#E1BEE7" opacity="0.3" />
</svg>