<svg xmlns="http://www.w3.org/2000/svg" viewBox="0 0 512 512">
  <defs>
    <linearGradient id="ml-gradient" x1="0%" y1="0%" x2="100%" y2="100%">
      <stop offset="0%" stop-color="#3F51B5" />
      <stop offset="100%" stop-color="#7986CB" />
    </linearGradient>
  </defs>
  <rect width="512" height="512" rx="64" fill="#1A237E" />
  <path d="M256 100l-140 80v160l140 80 140-80V180l-140-80z" fill="url(#ml-gradient)" />
  <path d="M256 140l-100 60v120l100 60 100-60V200l-100-60z" fill="#C5CAE9" />
  <path d="M256 180l-60 35v70l60 35 60-35v-70l-60-35z" fill="#3F51B5" />
  <path d="M256 220l-20 12v24l20 12 20-12v-24l-20-12z" fill="#FFC107" />
  <path d="M176 200l-40 20v80l40 20 40-20v-80l-40-20z" fill="#3F51B5" opacity="0.7" />
  <path d="M336 200l-40 20v80l40 20 40-20v-80l-40-20z" fill="#3F51B5" opacity="0.7" />
</svg>