<svg xmlns="http://www.w3.org/2000/svg" viewBox="0 0 512 512">
  <defs>
    <linearGradient id="pubg-gradient" x1="0%" y1="0%" x2="100%" y2="100%">
      <stop offset="0%" stop-color="#FFC107" />
      <stop offset="100%" stop-color="#FFD54F" />
    </linearGradient>
  </defs>
  <rect width="512" height="512" rx="64" fill="#263238" />
  <circle cx="256" cy="256" r="160" fill="#37474F" />
  <path d="M256 116c-77.32 0-140 62.68-140 140s62.68 140 140 140 140-62.68 140-140-62.68-140-140-140zm0 20c66.27 0 120 53.73 120 120s-53.73 120-120 120-120-53.73-120-120 53.73-120 120-120z" fill="url(#pubg-gradient)" />
  <path d="M256 156c-55.23 0-100 44.77-100 100s44.77 100 100 100 100-44.77 100-100-44.77-100-100-100zm0 20c44.18 0 80 35.82 80 80s-35.82 80-80 80-80-35.82-80-80 35.82-80 80-80z" fill="#FFC107" opacity="0.7" />
  <path d="M236 196v120l80-60-80-60z" fill="#FFC107" />
  <circle cx="256" cy="256" r="30" fill="#37474F" />
  <circle cx="256" cy="256" r="20" fill="#FFC107" />
</svg>